0
SECTION
2
HEADER
9
$ACADVER
1
AC1009
9
$INSBASE
10
0.0
20
0.0
30
0.0
9
$EXTMIN
10
0.0
20
0.0
30
0.0
9
$EXTMAX
10
8000.0
20
6000.0
30
0.0
0
ENDSEC
0
SECTION
2
TABLES
0
TABLE
2
LAYER
70
4
0
LAYER
2
WALL
70
0
62
7
6
CONTINUOUS
0
LAYER
2
DOOR
70
0
62
1
6
CONTINUOUS
0
LAYER
2
WINDOW
70
0
62
3
6
CONTINUOUS
0
LAYER
2
TEXT
70
0
62
5
6
CONTINUOUS
0
ENDTAB
0
TABLE
2
LTYPE
70
1
0
LTYPE
2
CONTINUOUS
70
0
3
Solid line
72
65
73
0
40
0.0
0
ENDTAB
0
ENDSEC
0
SECTION
2
ENTITIES
0
LINE
8
WALL
10
0.0
20
0.0
30
0.0
11
6000.0
21
0.0
31
0.0
0
LINE
8
WALL
10
6000.0
20
0.0
30
0.0
11
6000.0
21
4000.0
31
0.0
0
LINE
8
WALL
10
6000.0
20
4000.0
30
0.0
11
0.0
21
4000.0
31
0.0
0
LINE
8
WALL
10
0.0
20
4000.0
30
0.0
11
0.0
21
0.0
31
0.0
0
LINE
8
WALL
10
2000.0
20
0.0
30
0.0
11
2000.0
21
4000.0
31
0.0
0
LINE
8
WALL
10
4000.0
20
0.0
30
0.0
11
4000.0
21
4000.0
31
0.0
0
LINE
8
WALL
10
0.0
20
2000.0
30
0.0
11
2000.0
21
2000.0
31
0.0
0
LINE
8
DOOR
10
1900.0
20
0.0
30
0.0
11
2100.0
21
0.0
31
0.0
0
LINE
8
DOOR
10
1900.0
20
0.0
30
0.0
11
1900.0
21
200.0
31
0.0
0
LINE
8
DOOR
10
2100.0
20
0.0
30
0.0
11
2100.0
21
200.0
31
0.0
0
LINE
8
DOOR
10
1900.0
20
200.0
30
0.0
11
2100.0
21
200.0
31
0.0
0
LINE
8
DOOR
10
0.0
20
1900.0
30
0.0
11
0.0
21
2100.0
31
0.0
0
LINE
8
DOOR
10
0.0
20
1900.0
30
0.0
11
200.0
21
1900.0
31
0.0
0
LINE
8
DOOR
10
0.0
20
2100.0
30
0.0
11
200.0
21
2100.0
31
0.0
0
LINE
8
DOOR
10
200.0
20
1900.0
30
0.0
11
200.0
21
2100.0
31
0.0
0
LINE
8
WINDOW
10
1000.0
20
4000.0
30
0.0
11
1500.0
21
4000.0
31
0.0
0
LINE
8
WINDOW
10
1000.0
20
3900.0
30
0.0
11
1500.0
21
3900.0
31
0.0
0
LINE
8
WINDOW
10
1000.0
20
4000.0
30
0.0
11
1000.0
21
3900.0
31
0.0
0
LINE
8
WINDOW
10
1500.0
20
4000.0
30
0.0
11
1500.0
21
3900.0
31
0.0
0
LINE
8
WINDOW
10
4500.0
20
4000.0
30
0.0
11
5000.0
21
4000.0
31
0.0
0
LINE
8
WINDOW
10
4500.0
20
3900.0
30
0.0
11
5000.0
21
3900.0
31
0.0
0
LINE
8
WINDOW
10
4500.0
20
4000.0
30
0.0
11
4500.0
21
3900.0
31
0.0
0
LINE
8
WINDOW
10
5000.0
20
4000.0
30
0.0
11
5000.0
21
3900.0
31
0.0
0
TEXT
8
TEXT
10
2500.0
20
4200.0
30
0.0
40
200.0
1
卧室
50
0.0
0
TEXT
8
TEXT
10
2500.0
20
1800.0
30
0.0
40
200.0
1
客厅
50
0.0
0
TEXT
8
TEXT
10
500.0
20
1000.0
30
0.0
40
200.0
1
厨房
50
0.0
0
TEXT
8
TEXT
10
4500.0
20
1000.0
30
0.0
40
200.0
1
卫生间
50
0.0
0
ENDSEC
0
EOF